<?xml version="1.0" encoding="UTF-8" standalone="no"?>
<!-- Created with Inkscape (http://www.inkscape.org/) -->

<svg
   width="44mm"
   height="44mm"
   viewBox="0 0 44 44"
   version="1.1"
   id="svg1"
   inkscape:version="1.4 (86a8ad7, 2024-10-11)"
   sodipodi:docname="ico.svg"
   inkscape:export-filename="ico400.png"
   inkscape:export-xdpi="230.90909"
   inkscape:export-ydpi="230.90909"
   xmlns:inkscape="http://www.inkscape.org/namespaces/inkscape"
   xmlns:sodipodi="http://sodipodi.sourceforge.net/DTD/sodipodi-0.dtd"
   xmlns:xlink="http://www.w3.org/1999/xlink"
   xmlns="http://www.w3.org/2000/svg"
   xmlns:svg="http://www.w3.org/2000/svg">
  <sodipodi:namedview
     id="namedview1"
     pagecolor="#000000"
     bordercolor="#111111"
     borderopacity="1"
     inkscape:showpageshadow="0"
     inkscape:pageopacity="0"
     inkscape:pagecheckerboard="false"
     inkscape:deskcolor="#d1d1d1"
     inkscape:document-units="mm"
     showguides="true"
     inkscape:zoom="2"
     inkscape:cx="85.5"
     inkscape:cy="33.25"
     inkscape:window-width="1842"
     inkscape:window-height="1051"
     inkscape:window-x="69"
     inkscape:window-y="-9"
     inkscape:window-maximized="1"
     inkscape:current-layer="layer1">
    <sodipodi:guide
       position="5.7350506,34.084327"
       orientation="0,-1"
       id="guide13"
       inkscape:locked="false" />
    <sodipodi:guide
       position="4.5190479,34.828723"
       orientation="1,0"
       id="guide14"
       inkscape:locked="false" />
  </sodipodi:namedview>
  <defs
     id="defs1" />
  <g
     inkscape:label="Слой 1"
     inkscape:groupmode="layer"
     id="layer1">
    <path
       id="rect4"
       style="fill:#ffffff;stroke:none;stroke-width:1.190625;stroke-linecap:square;stroke-miterlimit:0;stroke-dasharray:none;paint-order:fill markers stroke;fill-opacity:1"
       d="M 42.715739 1.2841593 L 40.542228 1.6763835 L 40.598039 12.441618 L 36.477877 9.9626994 L 32.357715 12.441618 L 32.357715 3.1527791 L 22.000208 5.0213989 L 22.000208 38.978499 L 42.715739 42.715739 L 42.715739 22.000208 L 42.715739 1.2841593 z M 34.664551 15.635738 L 39.49578 15.635738 L 40.493136 15.635738 L 40.493136 16.633093 L 40.493136 21.463806 L 39.49578 21.463806 L 39.49578 17.430461 L 33.698201 24.779366 L 32.990234 23.882263 L 30.72784 21.015255 L 24.930261 28.36416 L 24.222294 27.467057 C 24.222294 27.467057 28.087782 22.567871 30.02039 20.118152 C 30.256264 19.819158 30.72784 19.221049 30.72784 19.221049 L 31.435807 20.118152 L 33.698201 22.98516 L 38.709265 16.633093 L 34.664551 16.633093 L 34.664551 15.635738 z " />
    <path
       id="path5"
       style="fill:#ffffff;fill-opacity:1;stroke:none;stroke-width:1.19062;stroke-linecap:square;stroke-miterlimit:0;stroke-dasharray:none;paint-order:fill markers stroke"
       d="m 2.0867799,2.0779093 -0.00887,19.9222987 0.00887,19.921781 19.9134281,-2.94349 V 5.0213989 Z M 2.5320596,2.5868004 21.537187,5.4549642 V 38.544934 l -19.0051274,2.868164 0.00887,-19.41289 z"
       sodipodi:nodetypes="cccccccccccc" />
    <g
       id="g13"
       transform="translate(3.0263537e-4,2.2158854)">
      <path
         id="path13"
         style="fill:#ffffff;fill-opacity:1;stroke-width:0.517559;stroke-linecap:square;stroke-miterlimit:0;paint-order:fill markers stroke"
         d="M 4.5190478,8.9642545 A 0.951521,0.951521 0 0 0 3.5672241,9.9156738 0.951521,0.951521 0 0 0 4.5190478,10.867093 0.951521,0.951521 0 0 0 5.4704672,9.9156738 0.951521,0.951521 0 0 0 4.5190478,8.9642545 Z m 0,0.2070235 A 0.74449729,0.74449729 0 0 1 5.2634434,9.9156738 0.74449729,0.74449729 0 0 1 4.5190478,10.660069 0.74449729,0.74449729 0 0 1 3.7742479,9.9156738 0.74449729,0.74449729 0 0 1 4.5190478,9.171278 Z" />
      <rect
         style="fill:#ffffff;fill-opacity:1;stroke-width:0.63612;stroke-linecap:square;stroke-miterlimit:0;paint-order:fill markers stroke"
         id="rect13"
         width="13.28509"
         height="1.260723"
         x="6.2568808"
         y="9.2853117" />
    </g>
    <g
       id="use14"
       transform="translate(1.8376892e-8,5.9994271)">
      <path
         id="path18"
         style="fill:#ffffff;fill-opacity:1;stroke-width:0.517559;stroke-linecap:square;stroke-miterlimit:0;paint-order:fill markers stroke"
         d="M 4.5190478,8.9642545 A 0.951521,0.951521 0 0 0 3.5672241,9.9156738 0.951521,0.951521 0 0 0 4.5190478,10.867093 0.951521,0.951521 0 0 0 5.4704672,9.9156738 0.951521,0.951521 0 0 0 4.5190478,8.9642545 Z m 0,0.2070235 A 0.74449729,0.74449729 0 0 1 5.2634434,9.9156738 0.74449729,0.74449729 0 0 1 4.5190478,10.660069 0.74449729,0.74449729 0 0 1 3.7742479,9.9156738 0.74449729,0.74449729 0 0 1 4.5190478,9.171278 Z" />
      <rect
         style="fill:#ffffff;fill-opacity:1;stroke-width:0.63612;stroke-linecap:square;stroke-miterlimit:0;paint-order:fill markers stroke"
         id="rect18"
         width="13.28509"
         height="1.260723"
         x="6.2568808"
         y="9.2853117" />
    </g>
    <use
       x="0"
       y="0"
       xlink:href="#use14"
       id="use15"
       transform="translate(0,3.7835417)" />
    <use
       x="0"
       y="0"
       xlink:href="#use15"
       id="use16"
       transform="translate(0,3.7835417)" />
    <use
       x="0"
       y="0"
       xlink:href="#use16"
       id="use17"
       transform="translate(3.0261699e-4,3.7835417)" />
    <use
       x="0"
       y="0"
       xlink:href="#use17"
       id="use18"
       transform="translate(8.8450498e-8,3.7835417)" />
    <path
       id="path20"
       style="fill:#ffffff;stroke:none;stroke-width:1.190625;stroke-linecap:square;stroke-miterlimit:0;stroke-dasharray:none;paint-order:fill markers stroke;fill-opacity:1"
       d="M 1.2841593 1.2841593 L 1.2841593 22.000208 L 1.2841593 42.715739 L 22.000208 38.978499 L 22.000208 5.0213989 L 1.2841593 1.2841593 z M 1.7471802 1.813326 L 21.537187 5.4549642 L 21.537187 38.544934 L 1.7471802 42.186572 L 1.7471802 22.000208 L 1.7471802 1.813326 z " />
  </g>
</svg>
